PathFileType	4	(X/Y/Z)	s03c0103.trc
DataRate	CameraRate	NumFrames	NumMarkers	Units	OrigDataRate	OrigDataStartFrame	OrigNumFrames
200	200	4	50	mm	200	1000	2000
Frame#	Time	racr			lacr			c7			jug			rlel			rdr			llel			ldr			s2			lic			ric			lasi			rasi			rpsi			lpsi			rgt			lgt			rth1			rth2			rth3			rth4			rlfc			rmfc			rsh1			rsh2			rsh3			rsh4			rlmal			rcal			rtoe			rmt5			rmt1			lth1			lth2			lth4			lth3			llfc			lmfc			lsh1			lsh2			lsh3			lsh4			llmal			lcal			ltoe			lmt1			lmt5			SBIKE			LBIKE			RBIKE			
		X1	Y1	Z1	X2	Y2	Z2	X3	Y3	Z3	X4	Y4	Z4	X5	Y5	Z5	X6	Y6	Z6	X7	Y7	Z7	X8	Y8	Z8	X9	Y9	Z9	X10	Y10	Z10	X11	Y11	Z11	X12	Y12	Z12	X13	Y13	Z13	X14	Y14	Z14	X15	Y15	Z15	X16	Y16	Z16	X17	Y17	Z17	X18	Y18	Z18	X19	Y19	Z19	X20	Y20	Z20	X21	Y21	Z21	X22	Y22	Z22	X23	Y23	Z23	X24	Y24	Z24	X25	Y25	Z25	X26	Y26	Z26	X27	Y27	Z27	X28	Y28	Z28	X29	Y29	Z29	X30	Y30	Z30	X31	Y31	Z31	X32	Y32	Z32	X33	Y33	Z33	X34	Y34	Z34	X35	Y35	Z35	X36	Y36	Z36	X37	Y37	Z37	X38	Y38	Z38	X39	Y39	Z39	X40	Y40	Z40	X41	Y41	Z41	X42	Y42	Z42	X43	Y43	Z43	X44	Y44	Z44	X45	Y45	Z45	X46	Y46	Z46	X47	Y47	Z47	X48	Y48	Z48	X49	Y49	Z49	X50	Y50	Z50	
1000	5.0000	437.770446	1415.228837	-69.692935	481.923030	1400.759721	-364.563498	397.480727	1495.319986	-227.084968	397.756049	1318.487216	-224.620476	490.236725	1149.890599	12.553240	720.701928	964.653267	-50.710946	552.099943	1158.397614	-477.251995	745.085203	923.677516	-431.093466	-117.422365	1218.354707	-293.773412	71.474884	1245.742904	-455.349691	10.327364	1272.647648	-92.490716	85.775728	1178.463596	-417.598720	55.946555	1200.678895	-136.341137	-99.414165	1275.894520	-255.985572	-84.782231	1268.831131	-333.714108	-5.327844	1198.408752	-81.709493	4.609933	1114.743721	-473.598247	131.677721	1125.932400	-56.156684	220.994554	1126.033705	-57.259682	296.718428	1085.742842	-55.858542	229.587995	1158.185924	-75.602150	418.348599	1026.459159	-75.054252	428.988461	1003.997483	-204.764605	352.630800	875.396120	-52.010096	332.191770	789.373398	-61.471028	271.281081	725.462372	-60.922525	359.924874	775.908341	-84.156211	204.383468	605.266947	-75.072216	131.845110	569.796494	-112.298098	432.147694	493.265379	-126.028211	316.132941	505.648148	-51.391899	339.078341	514.307410	-164.400112	87.383053	981.898982	-493.108918	151.141759	923.323779	-501.459224	182.043055	943.162269	-498.740725	179.063554	838.864882	-495.752554	260.522716	734.931427	-480.350198	270.877207	724.952362	-357.067024	189.529467	576.668086	-489.476762	188.366432	493.551668	-469.264182	142.289677	417.399102	-454.966417	222.910479	487.038403	-451.146697	102.739056	300.295915	-428.140340	35.505170	292.706107	-377.682469	301.690846	138.402208	-358.928134	216.574952	181.351281	-320.973321	186.758506	166.570576	-438.040411	-219.767790	944.193132	-241.041900	-13.161844	80.711918	-437.158013	-13.116657	81.827387	-36.644910	
1001	5.0050	436.958660	1415.026032	-68.795199	481.776135	1400.273671	-363.474181	396.985573	1495.290084	-225.194204	396.914579	1318.451543	-223.260220	489.141947	1149.548723	12.542602	720.164029	964.969390	-50.584763	551.461149	1158.055193	-476.662179	744.601704	923.133316	-430.864770	-117.844605	1219.173247	-293.255951	70.401992	1246.893013	-455.239749	9.401751	1273.734950	-92.142533	84.760478	1179.692856	-417.350604	55.370757	1200.527604	-135.821402	-100.010227	1276.494923	-255.467792	-85.262841	1269.777842	-333.197080	-6.563116	1197.503500	-81.492993	4.192451	1116.589616	-473.440884	130.471507	1123.111643	-55.624917	219.721606	1122.137918	-56.491962	295.022096	1081.146488	-55.288786	228.575365	1154.174988	-74.559953	415.773888	1021.007180	-75.524410	426.759497	998.757977	-204.263762	352.685202	868.241293	-51.391177	333.691569	781.834455	-60.937248	273.492597	716.861720	-60.783496	361.214439	768.986090	-84.108188	209.594864	595.186481	-74.327334	137.418813	557.558143	-111.378775	440.061878	492.572611	-125.455610	323.743587	499.828088	-50.092449	346.528067	509.693498	-163.470129	88.694233	985.282447	-492.988253	153.177788	927.676531	-501.373017	183.797487	947.865704	-498.337405	182.130097	843.558576	-496.537533	263.792992	739.452538	-482.175537	274.671208	729.514209	-358.781998	190.550470	582.029492	-490.304405	188.245368	499.785835	-470.878253	140.761554	423.728472	-455.160407	222.358679	492.099453	-451.313178	99.440448	307.965931	-428.016716	31.971494	302.879028	-377.237590	291.345111	136.613859	-356.097573	208.800421	184.640135	-320.925317	178.607315	171.475055	-437.804304	-219.894483	944.180089	-241.129825	-13.203791	80.727508	-437.236679	-13.495006	82.261357	-36.653775	
1002	5.0100	436.360275	1414.813144	-68.104531	481.585725	1399.761078	-362.704406	396.799182	1495.227945	-224.718320	396.202545	1318.392198	-222.736835	488.047583	1149.175035	12.390576	719.647427	965.221563	-50.579709	550.698993	1157.814379	-476.510092	744.315488	922.857396	-430.927752	-118.673663	1219.749496	-292.292418	69.202953	1247.914209	-455.048446	8.750434	1274.461065	-91.693375	83.669661	1180.903522	-417.189919	54.885844	1200.253599	-135.174726	-100.569816	1276.829865	-254.632155	-85.760955	1270.793134	-332.321536	-7.664917	1196.124288	-80.958860	3.547723	1118.370438	-473.038316	129.234410	1119.685092	-54.906746	218.459569	1117.477844	-55.478367	293.153744	1075.361948	-54.663418	227.788866	1149.699147	-72.983571	413.129761	1014.307138	-75.257290	424.353351	992.542150	-203.525157	352.571540	860.069482	-50.478633	335.084122	773.158712	-60.167801	276.182545	707.200401	-59.896444	362.991467	760.968742	-83.206148	214.481102	584.447234	-73.873921	143.035046	544.319315	-110.819718	447.664380	491.239040	-124.775397	331.244213	493.265909	-48.960339	353.722173	504.547759	-162.420621	90.024562	988.731044	-492.792496	155.275969	932.143100	-501.124419	185.567192	952.670034	-497.843089	185.365321	848.354355	-497.194652	267.425010	744.361013	-483.798961	279.042345	734.388338	-360.353791	191.927068	587.567210	-491.109959	188.251963	505.393913	-471.319924	139.533109	430.269854	-455.312403	222.211475	497.251237	-451.507681	96.394541	316.013351	-427.836556	28.892525	313.371627	-376.775313	281.787969	137.380369	-356.074964	201.168425	188.525533	-320.903868	170.620189	176.932864	-437.555668	-220.006708	944.137942	-241.216319	-13.221220	80.702768	-437.309348	-13.557090	82.252990	-36.692572	
1003	5.0150	435.952907	1414.658672	-67.667874	481.279435	1399.284507	-362.228864	396.678407	1495.143813	-224.540874	395.576711	1318.313315	-222.411475	487.132346	1149.031602	12.341227	719.179925	965.350385	-50.706197	550.151562	1157.487074	-476.120311	744.062012	922.733080	-431.024767	-119.518674	1220.359182	-291.165741	67.857943	1248.833465	-454.645011	8.212752	1274.794785	-91.005708	82.495585	1181.921439	-416.930546	54.491942	1199.860889	-134.403497	-101.165868	1276.990317	-253.491217	-86.443057	1270.932674	-331.415647	-8.760382	1194.572212	-80.426454	2.930921	1120.183043	-472.646175	127.858743	1115.646421	-54.032289	217.085259	1112.106492	-54.280419	291.065756	1068.796721	-53.929485	227.035610	1144.402342	-71.215623	410.539361	1006.531556	-74.157135	421.747749	985.424900	-202.596706	352.220953	850.754876	-49.447279	336.432421	763.608519	-59.316255	278.849633	696.493224	-58.921671	364.346426	752.089966	-82.555894	219.288209	572.749330	-73.483226	148.621079	530.325264	-110.355673	455.355775	488.889655	-123.869932	338.631212	486.218242	-48.220588	360.700592	498.653880	-161.556126	91.310842	992.290527	-492.459198	157.486333	936.646196	-500.822583	187.395403	957.556193	-497.310406	188.651263	853.242465	-497.664672	271.184354	749.506984	-485.486988	283.339210	739.224178	-361.961212	193.476874	593.374415	-491.905095	188.468509	511.390699	-471.822474	138.610039	437.069661	-455.435315	222.292914	502.719848	-451.883842	93.559653	324.325946	-427.614218	25.998951	324.060784	-376.276945	272.437730	138.729803	-355.921831	193.827580	192.937793	-320.883696	162.994441	182.880780	-437.246214	-220.083117	944.082834	-241.223667	-13.246667	80.698402	-437.320891	-13.573108	82.212717	-36.703485	
